<?xml version="1.0" encoding="UTF-8"?>
<svg xmlns="http://www.w3.org/2000/svg" version="1.1" viewBox="0 0 1848 1934.9">
  <defs>
    <style>
      .cls-1 {
        fill: #2980c3;
      }
    </style>
  </defs>
  <!-- Generator: Adobe Illustrator 28.7.4, SVG Export Plug-In . SVG Version: 1.2.0 Build 166)  -->
  <g>
    <g id="Layer_1">
      <g>
        <path class="cls-1" d="M2.6,1008.1C4.3,979.3,0,945.8,5.5,912.3c9.1-56.1,39-97.1,89.4-122.6,12.4-6.3,20.1-12.8,22.9-28.2,22-120.6,70.4-230.2,141.9-329.5,8.2-11.4,14.7-19.2,4.2-34.1-13.4-18.8-3.9-36.2,10.1-51.8,100.9-113,222.4-196.8,366.8-241.4C985.7-1.6,1289.4,71.2,1548.9,322.9c23.9,23.2,55.9,46.7,25.3,87.4-5.1,6.8,4,12.7,7.8,18,74.3,101.4,123.5,213.7,145.4,337.5,2.4,13.7,10.9,18,20.9,23,62.3,31.7,93,83.7,93.3,152.2.3,61.8,6.3,124.1-4,185.6-14.8,88.4-104.9,150.1-192,132-26.3-5.4-33.4-25.8-33.3-50.7.5-101.5,2.5-203,.1-304.5-6.5-272.7-129.7-478.2-368.2-609.3-399.1-219.4-911,23.8-998.8,471.2-15.3,77.8-12.6,155.9-11.8,234.2.8,72.9-.1,145.8-1.8,218.7-.6,25.5-15.6,40-43,41.3-111.3,5.2-186-65.4-186.3-176.7-.1-23.3,0-46.7,0-74.8"/>
        <path class="cls-1" d="M1129.7,1386c46.6,6.2,92.9,13.6,139.8,16.4,62.9,3.7,110.5-16.5,145.7-54.5,44.3-47.6,64.5-103,61-165.1-3.4-62.4-58.2-99.3-132.3-86.4-66.2,11.4-124.9,37.4-184.2,61-52.5,21-101.8,46.2-140.2,81.9-54.2,50.3-23.4,117,63.1,137.8,15.3,3.8,31.3,5.9,47.1,8.8M871.3,1255.9c-4.9-14.8-13.2-28.3-23-41-34.2-53.4-81.7-101.5-129.9-141.7-25.2-21.9-52.2-42-80-60.7-61.9-42.8-110.5-67.6-110.5-67.6h-.2c-73.6-36.8-140.8-.7-158.6,83.3-19.9,94.3-4,184.6,47.2,266.8,35.2,56.7,89.6,83.5,154.8,89.5,40.8,3.8,81.5,6,122.4,8.9,33.2.7,66.3,3.1,98.6-7.8,42.6-14.4,75.4-40.4,82.6-86.1,2.8-15.9,1.1-30.2-3.3-43.7M1659.9,1473.1c-.7-37-17-96.9-41.4-115.9-10.4-8.2-25.8-3.6-29.7,9-5.2,16.3-13.6,39.8-26.5,67.2-28.7,68-70.9,123.8-120.4,169.4-64.5,59.6-141.1,102.1-216.2,132.3h-.1c-18.6,7.5-37.2,14.3-55.4,20.3-.2.1-.3.1-.5.2-12.1,4-24,7.7-35.8,11.2-.1,0-.2.1-.3.1-5.7,1.7-11.3,3.2-16.8,4.8l-.9.3c-11.3,3.1-22.4,6-33.2,8.6-.5.1-.8.2-1.3.3-5,1.2-9.8,2.4-14.7,3.4-.5.1-.8.2-1.3.3-10.3,2.3-20.2,4.4-29.8,6.3-.6.1-1.3.3-1.9.4-4.2.8-8.4,1.7-12.4,2.4-.6.1-1,.2-1.6.3-9,1.7-17.7,3.1-25.9,4.5-.7.1-1.4.2-2.1.4-3.6.6-7.1,1.1-10.4,1.6-.5.1-.9.1-1.3.2-3.9.6-7.7,1.1-11.3,1.7-3.5.5-6.9.9-10.1,1.4-.6.1-1,.1-1.6.2-3.1.4-6.2.7-9.1,1.1h-.1c-24.1,2.9-39.2,3.7-41.6,3.8h-.4c-313.8,32.9,79.6,101.7,375.5,49.6.6-.1,1.3-.3,2-.4,6.9-1.2,13.8-2.6,20.7-3.9,6.1-1.2,12.1-2.5,17.9-3.9,4.6-1,9.1-2.1,13.6-3.1,2.8-.7,5.6-1.4,8.4-2,39.5-10,75.6-22.7,106.5-38.6,183.1-88.5,200.8-236.6,200.8-236.6,6.3-28.3,9.4-60.2,8.7-97.1"/>
      </g>
    </g>
  </g>
</svg>